<?xml version="1.0" standalone="no"?><!DOCTYPE svg PUBLIC "-//W3C//DTD SVG 1.1//EN" "http://www.w3.org/Graphics/SVG/1.1/DTD/svg11.dtd"><svg class="icon" height="512" viewBox="0 0 1024 1024" version="1.1" xmlns="http://www.w3.org/2000/svg"><path d="M297.89184 687.38048c0-10.4448 8.0896-18.91328 18.06336-18.91328s18.05312 8.47872 18.05312 18.91328c0 10.4448-8.0896 18.92352-18.06336 18.92352-9.96352 0-18.05312-8.47872-18.05312-18.92352z m144.4864-170.12736c-9.97376 0-18.06336-8.46848-18.06336-18.90304 0-10.47552 8.0896-18.91328 18.06336-18.91328s18.06336 8.45824 18.06336 18.91328c0 10.43456-8.0896 18.90304-18.06336 18.90304z m126.4128 170.12736c0-20.85888 16.1792-37.7856 36.11648-37.7856 19.97824 0 36.13696 16.92672 36.13696 37.7856 0 20.8896-16.15872 37.82656-36.1472 37.82656-19.92704 0-36.10624-16.93696-36.10624-37.82656z m180.6336-170.12736c-29.93152 0-54.20032-25.40544-54.20032-56.7296 0-31.29344 24.2688-56.69888 54.17984-56.69888 29.93152 0 54.19008 25.3952 54.19008 56.69888 0 31.32416-24.24832 56.7296-54.1696 56.7296z m212.72576 81.664c0 137.13408-70.9632 222.5152-202.12736 222.5152H213.72928c-91.83232 0-152.27904-52.0704-152.27904-148.0192 0-69.92896 39.71072-118.92736 96.58368-146.5344-0.44032-5.51936-1.57696-21.66784-1.57696-27.2896 0-109.7216 70.2464-172.8512 175.2064-172.8512 15.2064 0 29.76768 2.31424 43.88864 5.81632 33.9456-76.53376 97.7408-129.98656 183.74656-129.98656 101.31456 0 171.23328 65.03424 192.99328 163.74784-0.98304-0.03072-1.8944-0.3072-2.88768-0.3072-49.87904 0-90.30656 42.31168-90.30656 94.5152a96.28672 96.28672 0 0 0 26.95168 67.24608l-58.92096 88.0128c-7.03488-2.4064-14.39744-4.00384-22.20032-4.00384a69.8368 69.8368 0 0 0-40.06912 12.72832l-78.00832-93.82912a58.32704 58.32704 0 0 0 9.728-32.32768c0-31.3344-24.2688-56.7296-54.20032-56.7296-29.92128 0-54.1696 25.3952-54.1696 56.75008 0 13.52704 4.7104 25.78432 12.288 35.5328l-67.85024 99.79904a51.0976 51.0976 0 0 0-16.6912-3.0208c-29.92128 0-54.20032 25.36448-54.20032 56.69888 0 31.32416 24.28928 56.7296 54.2208 56.7296 29.92128 0 54.1696-25.40544 54.1696-56.7296a58.20416 58.20416 0 0 0-8.74496-30.72l69.87776-102.83008c3.64544 0.80896 7.3728 1.20832 11.10016 1.20832 5.18144 0 10.07616-0.9728 14.82752-2.43712l83.61984 100.56704a77.59872 77.59872 0 0 0-8.1408 34.2016c0 41.80992 32.3584 75.65312 72.22272 75.65312 39.936 0 72.26368-33.86368 72.26368-75.64288a77.0048 77.0048 0 0 0-19.49696-51.34336l58.70592-87.74656c10.24 4.23936 21.32992 6.7584 33.024 6.7584 49.8688 0 90.3168-42.31168 90.30656-94.52544 0-39.44448-23.11168-73.15456-55.88992-87.31648C889.47712 394.89536 962.1504 479.744 962.1504 598.91712z" /></svg>